<svg xmlns="http://www.w3.org/2000/svg" viewBox="0 0 727.11 727.11"><defs><style>.a{fill:#fff;}.b{fill:#b0cbae;}.c{fill:#422652;}</style></defs><title>ndwn-logo-header</title><circle class="a" cx="363.55" cy="363.55" r="363.55"/><circle class="b" cx="383.17" cy="383.94" r="240.5"/><path class="c" d="M383.17,143.44c132.82,0,240.5,107.68,240.5,240.5S516,624.44,383.17,624.44s-240.5-107.68-240.5-240.5,107.68-240.5,240.5-240.5m0-17A256.75,256.75,0,1,0,483.4,146.68a255.9,255.9,0,0,0-100.24-20.24h0Z"/><path class="c" d="M160.56,554.22c-22-27.73-37.56-59-47.49-93a275,275,0,0,1-9.28-110.72c7.58-63.31,33.84-117.87,78.12-163.72A279.25,279.25,0,0,1,341.25,105.1a279.79,279.79,0,0,1,88.39.76C477.72,114,520.93,133.32,558.88,164a281.55,281.55,0,0,1,62.66,70.27q-27.62-55.33-77.46-95.61c-39-31.45-83.33-51.25-132.69-59.64a289.12,289.12,0,0,0-180.21,28.1,283.05,283.05,0,0,0-74.12,55c-45.46,47.07-72.43,103.09-80.21,168.09a282.31,282.31,0,0,0,9.53,113.68c10.19,34.89,26.15,67,48.75,95.43q43,54.13,99.82,82.38Q193.56,595.78,160.56,554.22Z"/><path class="c" d="M263.55,439.94c5.7,0,11.4,0,17.1,0,0.77,0,1.92-.52,2.24.73,0.27,1.09-.7,1.52-1.43,2A71.14,71.14,0,0,1,257,451.8c-4,.78-8.17,1.21-12.27,1.62-1.47.15-2,.6-2.07,2.1-0.95,12.62-3.37,25-5.6,37.47-0.48,2.64-1.78,5.12-1.37,7.94,0.34,2.3-1.44,1.72-2.72,1.86-1.62.17-2.2-.37-2.21-2.1-0.08-14.46-.36-28.91-0.32-43.37,0-3.12-.76-4.09-4-4.34a81,81,0,0,1-34-10.62c-0.73-.42-1.77-0.87-1.55-1.84s1.33-.53,2-0.55c11.5-.24,23-0.51,34.51-0.58,2.35,0,2.89-.7,2.89-3q0-29.06.18-58.13c0-1.94-.39-2.69-2.46-2.87-39.12-3.51-64.73-46.31-48.63-84.81a71.51,71.51,0,0,1,18.14-26.12c12.65-11.28,27.24-19.09,44.88-18.68,21,0.48,36.15,11,44.72,29.5,12.11,26.14,8.6,51.63-7.3,75.27-8.62,12.82-20.68,21.27-36.12,24.33-3.88.77-3.93,0.79-3.31,4.55a297.7,297.7,0,0,1,3.35,56.75c-0.08,2.75.74,3.26,3.25,3.18,5.5-.18,11-0.06,16.52-0.06v0.63Zm-34.2-187.29c-18.23.7-31.81,9.48-39.59,26.09-9.3,19.87-6.75,39.64,3.91,58.18,15.93,27.7,49.25,34.59,75.2,16.1,17.08-12.17,24.67-36.54,17.71-57a63.61,63.61,0,0,0-20.15-28.76A60.83,60.83,0,0,0,229.35,252.65Z"/><path class="c" d="M326.73,426.42c-1.31,3-2.4,5.38-3.42,7.81a5.83,5.83,0,0,1-6,3.94c-2.75-.13-4.32-1.84-5.23-4.41-3-8.32-6-16.61-9-24.92a21.31,21.31,0,0,1-.9-2.8c-0.55-2.62.76-6.15,2.61-6.62,4-1,6.92-.66,8.43,3.07,1.88,4.63,3.36,9.43,5,14.16a2.19,2.19,0,0,0,.93,1.56c0.87-2.4,1.71-4.78,2.58-7.16s2.35-3.68,4.81-3.64a5.35,5.35,0,0,1,5.28,3.9c0.79,2.22,1.62,4.41,2.7,7.32,1.46-4.21,2.71-7.84,4-11.46,0.48-1.39.94-2.79,1.49-4.16,1.37-3.41,4.31-4.84,7.53-3.7s4.61,4.2,3.5,7.67c-0.93,2.89-2.08,5.72-3.12,8.58-2.15,5.9-4.25,11.82-6.46,17.69-1.6,4.27-2.47,4.56-6.38,4.88-2.78.23-4.17-2.09-5.18-4.44S327.94,429.21,326.73,426.42Z"/><path class="c" d="M317.37,289.1c0,3.72,0,6.76,0,9.8,0,4.57-2.13,7.06-5.94,7.13-3.57.07-5.72-2.51-5.73-7,0-8,0-15.92,0-23.88q0-1.18,0-2.36c0-1.92-1.72-4.55,1-5.45s6.14-1.3,8.64,1.11c2,2,3.76,4.27,5.6,6.44,2.32,2.74,4.61,5.5,7.49,8.95-0.32-4.84.21-8.81-.49-12.77-0.55-3.1.13-3.95,3.21-4.15,6.58-.44,8.89,1.76,8.89,8.44q0,11.64,0,23.29c0,3.89-1.3,6.2-4,7.06-3.24,1-5.38-.6-7.31-3C325.07,298.29,321.4,294,317.37,289.1Z"/><path class="c" d="M327.74,481c0.29-4.27.87-8.37,0-12.46-0.51-2.5.65-3.57,3.16-3.77,6.8-.53,9.32,2.36,9.1,8.63-0.28,7.86,0,15.73-.07,23.6,0,4-1.91,6.49-5.07,6.85a6,6,0,0,1-5.64-2.5c-3.76-4.61-7.6-9.16-12-14.49,0,4.5.13,8.17,0,11.82a5.32,5.32,0,0,1-5.65,5.21,5.59,5.59,0,0,1-5.77-5.14,25.59,25.59,0,0,1-.07-2.65c0-6.59,0-13.18,0-19.77a36.92,36.92,0,0,0-.4-7.93c-0.56-2.55.68-3.44,3.14-3.65a9.52,9.52,0,0,1,9.18,4C320.79,473,324.34,476.94,327.74,481Z"/><path class="c" d="M305.31,351.64c-0.3-4.63.5-10.24-.48-15.82a2.16,2.16,0,0,1,2.29-2.75c6-.14,12-0.89,17.92.46,9.53,2.2,15.54,11.32,14.54,21.39-0.9,9.08-8.78,16.53-18.22,17.07-3.33.19-6.68,0.14-10,0-3.81-.12-6-2.37-6-6.17C305.27,361.44,305.31,357,305.31,351.64Zm11.77,0.62c0,2.16,0,4.33,0,6.49,0,1,.13,1.56,1.4,1.66,4.92,0.39,9.13-2.93,9.45-7.63,0.3-4.36-3.23-7.84-8.16-8.23-1.92-.15-3,0.13-2.72,2.41A49.26,49.26,0,0,1,317.08,352.26Z"/><path class="c" d="M440.09,483.44L434,500.33c-0.3.83-.55,1.68-0.89,2.5s-0.92,1.78-2.12,1.73-1.65-.89-2-1.86c-1.83-5-3.67-10-5.49-14.93-2.43-6.64-4.82-13.3-7.27-19.93-0.56-1.52-1-3,1-3.62,1.81-.61,2.36.79,2.85,2.16q5.07,14.15,10.17,28.28c0.22,0.61.19,1.4,1.11,1.73,2.1-5.92,4.14-11.84,6.32-17.7,0.49-1.32.4-3.33,2.74-3.23,2,0.09,2.09,1.78,2.57,3.09,2.17,6,4.3,11.92,6.67,18.48l9.54-26.61c0.53-1.48,1.06-3,1.57-4.44s1.33-2.32,2.85-1.78,1.4,2,1,3.23c-0.91,2.6-1.89,5.16-2.83,7.75-3.21,8.85-6.41,17.71-9.64,26.55-0.45,1.24-.68,2.89-2.5,2.86s-2-1.69-2.42-2.93c-1.88-5.17-3.69-10.36-5.58-15.53C441.25,485.25,441.25,484.19,440.09,483.44Z"/><path class="c" d="M484,405.83c0,9.45,0,18.07,0,26.68,0,0.69,0,1.38,0,2.06-0.08,1.69.55,4.09-2,4.14s-2-2.41-2-4.06c0-10.91,0-21.83,0-32.74,0-1.22-1-2.92.94-3.6s2.68,0.91,3.6,2q9.69,11.11,19.28,22.31,3.64,4.23,7.26,8.47c1-.69.54-1.56,0.54-2.25q0-14.16-.07-28.31c0-1.21,0-2.18,1.5-2.28s2.28,0.44,2.44,1.9a10.49,10.49,0,0,1,.07,1.17q0,17.26,0,34.51c0,1.23,0,2.44-1.42,2.9s-2.16-.57-2.93-1.46l-24.3-28.11C486.16,408.25,485.37,407.38,484,405.83Z"/><path class="c" d="M387.34,286.5a20.32,20.32,0,1,1-40.63-.19A20.32,20.32,0,0,1,387.34,286.5Zm-4,.11a16.28,16.28,0,1,0-16.15,16.1A16.34,16.34,0,0,0,383.32,286.61Z"/><path class="c" d="M405.85,406.61q0,13.93,0,27.86c0,0.49,0,1,0,1.47,0,1.37-.25,2.76-1.89,2.81-1.84.06-2.09-1.35-2.09-2.87q0-15.48,0-31c0-1.28,0-2.56,0-3.83,0-1-.52-2.29,1-2.76a2.74,2.74,0,0,1,3.29,1.22c4.2,5.57,8.47,11.09,12.72,16.62,0.53,0.69,1.08,1.36,1.84,2.31L433.37,402l2-2.56c0.7-.91,1.36-1.46,2.72-1s1.36,1.44,1.36,2.52q0,16.07,0,32.14c0,1.28,0,2.56,0,3.83a1.77,1.77,0,0,1-1.88,1.85,1.81,1.81,0,0,1-2-1.8c-0.09-1.27-.06-2.55-0.06-3.83,0-8.73,0-17.46,0-26.51-1.41.65-1.94,1.84-2.67,2.75-3.19,4-6.34,8-9.48,12-2,2.61-3.28,2.72-5.28.2-3.64-4.59-7.18-9.27-10.79-13.88C407,407.3,406.82,406.59,405.85,406.61Z"/><path class="c" d="M355.29,418.56a20.27,20.27,0,0,1,20.05-20.32,20.29,20.29,0,1,1,.37,40.58A20.14,20.14,0,0,1,355.29,418.56Zm4.07,0c-0.39,8.13,6.88,16.48,16.32,16.24a16.27,16.27,0,0,0-.06-32.54A16.16,16.16,0,0,0,359.35,418.59Z"/><path class="c" d="M434.47,372.73a20.27,20.27,0,1,1,20.4-20.11A20.21,20.21,0,0,1,434.47,372.73Zm0-36.53a16.4,16.4,0,0,0-16.23,16.39c-0.11,8.66,7.35,16,16.25,16.1A16.25,16.25,0,1,0,434.48,336.2Z"/><path class="c" d="M486.8,504.61a20.24,20.24,0,1,1,20.4-20A20.1,20.1,0,0,1,486.8,504.61Zm-16.16-19.4a16.28,16.28,0,0,0,32.54-1.29A16.28,16.28,0,1,0,470.65,485.21Z"/><path class="c" d="M513.14,483.73c0-5.7.08-11.41,0-17.11,0-2,.65-2.64,2.54-2.58,2.75,0.09,5.51,0,8.26,0a16,16,0,0,1,15.18,11c2.11,6.74,0,12.79-6.11,17.22-1.5,1.08-1.12,1.64-.07,2.6,1.88,1.73,3.71,3.52,5.51,5.33,1,1,2.43,2.18.84,3.68-1.33,1.26-2.52.29-3.56-.72a27.07,27.07,0,0,1-3.16-3.09c-3.38-4.6-7.9-5.86-13.34-5.14-1.5.2-2.11,0.5-2,2s0,3.15,0,4.72c0,1.39-.18,2.72-1.87,2.78-1.84.07-2.19-1.31-2.19-2.82Q513.13,492.73,513.14,483.73Zm4-4.26q0,2.21,0,4.42c0,8.08,0,8.08,8.32,7,6-.78,10.09-5,10.32-10.66a12,12,0,0,0-9.56-11.84c-2.43-.51-4.9-0.2-7.34-0.32-1.52-.08-1.78.68-1.75,2C517.23,473.18,517.19,476.33,517.19,479.47Z"/><path class="c" d="M412,295.34c2.31,2.47,4.56,4.91,6.85,7.31,0.93,1,1.88,2,.73,3.28s-2.44.61-3.55-.41c-1.44-1.32-3.3-2.34-4.32-3.91-3.1-4.82-7.71-4.68-12.51-4.43-1.37.07-1.94,0.43-1.85,1.86,0.1,1.66,0,3.34,0,5,0,1.46-.4,2.64-2,2.62s-2-1.32-2-2.7c0-2.26,0-4.52,0-6.78,0-9.33.07-18.67-.05-28,0-2.27.54-3.29,2.92-3.15,3.52,0.21,7.07-.28,10.58.39a16,16,0,0,1,12.88,12.24c1.38,6.53-1.06,12.18-7,16.16C412.29,295.06,412,295.31,412,295.34ZM397.33,281.7c0,3.24,0,6.47,0,9.71,0,1.15.18,1.88,1.57,1.8,2.25-.12,4.53,0,6.75-0.22,5.34-.63,9.29-4.23,10-8.9,0.89-5.61-1.66-10.2-6.78-12.7-3.36-1.63-6.88-1.24-10.38-1.29-1.37,0-1.17,1-1.18,1.88Q397.32,276.85,397.33,281.7Z"/><path class="c" d="M446.85,398.3c8.45,0,16.89-.08,25.34-0.09,1.51,0,3.07.1,3,2.24s-1.75,1.76-3,1.77c-6.29,0-12.57.07-18.86,0-1.76,0-2.43.4-2.36,2.28,0.14,3.83.16,7.67,0,11.49-0.09,2.06.71,2.42,2.55,2.38,4.71-.12,9.43,0,14.14,0,1.59,0,3.57-.21,3.6,2,0,2.48-2.11,2.06-3.74,2.06-4.72,0-9.43.11-14.14,0-2-.06-2.53.61-2.4,2.5a47.88,47.88,0,0,1,0,7.36c-0.21,2.35.73,2.74,2.84,2.69,5.79-.15,11.59-0.06,17.39-0.06a18.82,18.82,0,0,1,2.35.06,1.93,1.93,0,0,1,1.83,2,1.75,1.75,0,0,1-1.8,1.94c-8.44,0-16.88,0-25.32-.09a2.9,2.9,0,0,1-1-.51,12.82,12.82,0,0,1-.32-2Q446.85,417.22,446.85,398.3Z"/><path class="c" d="M348.41,483.9c0-5.8.08-11.6,0-17.4,0-1.83.53-2.46,2.3-2.45,7.77,0,15.53,0,23.3,0,1.33,0,2.66.06,2.69,1.91,0,2.08-1.47,2-2.86,2-6.19,0-12.39.11-18.58-.05-2.25-.06-2.87.62-2.76,2.81a89.67,89.67,0,0,1,0,10.61c-0.16,2.48.78,2.95,3,2.88,4.71-.15,9.44,0,14.15-0.07,1.56,0,2.76.22,2.89,2s-1.33,1.89-2.6,1.91c-4.61,0-9.23.26-13.83,0-3.11-.19-3.94.9-3.61,3.79a37.05,37.05,0,0,1,0,6.48c-0.11,1.79.44,2.36,2.3,2.32,6.19-.13,12.38-0.07,18.58-0.06,1.55,0,3.52-.23,3.41,2.11-0.09,2-1.84,1.92-3.36,1.92-7.18,0-14.35-.05-21.53,0-2.47,0-3.53-.77-3.46-3.42,0.16-5.8,0-11.6,0-17.4h-0.05Z"/><path class="c" d="M461.79,288.68c0,4.88,0,9.69,0,14.5,0,1.62,0,3.47-2.17,3.43s-1.92-1.87-1.92-3.36c0-11.5,0-23,0-34.49,0-1.42.08-2.63,1.9-2.62s2.22,1.25,2.22,2.79c0,5.2,0,10.4,0,15.67,7.29,0,14.45,0,21.61,0,1.73,0,2.18-.62,2.15-2.23-0.07-4.52,0-9,0-13.56,0-1.39-.07-2.69,1.77-2.69,1.55,0,2.25.88,2.25,2.46q0,17.69,0,35.38c0,1.53-.84,2.67-2.14,2.63-1.84-.05-2.29-1.74-2.07-3.26,0.58-4,.06-8,0.32-12,0.13-2-.47-2.72-2.6-2.67C476,288.76,469.06,288.68,461.79,288.68Z"/><path class="c" d="M384.21,352.91c5.71-4.73,10.91-9,16.09-13.34,2.58-2.16,5.07-4.44,7.69-6.55,1.11-.89,2.51-1.36,3.62.08s0.07,2.33-1,3.18c-3.78,3.12-7.51,6.3-11.35,9.34-1.45,1.15-1.56,2-.53,3.6,4.18,6.42,8.2,12.94,12.3,19.41,0.82,1.29,1.85,2.6,0,3.74s-2.61-.5-3.39-1.71c-3.88-6-7.79-12-11.56-18.14-1.27-2.05-2.18-2.82-4.21-.71a40.62,40.62,0,0,1-6.68,5.45c-1.14.76-.95,1.59-1,2.48,0,3.24,0,6.49,0,9.73,0,1.74-.35,3.3-2.48,3.2s-1.54-1.94-1.55-3.17c0-11.6,0-23.19,0-34.79,0-1.25-.09-2.46,1.64-2.51s2.42,1,2.42,2.61C384.2,340.61,384.21,346.4,384.21,352.91Z"/><path class="c" d="M551.19,484.33l14.88-12.27,8.4-7c1.17-1,2.42-1.57,3.57-.12s0.11,2.33-.93,3.19c-3.79,3.12-7.51,6.32-11.38,9.35-1.49,1.17-1.54,2-.53,3.58,4.16,6.37,8.17,12.84,12.24,19.27,0.79,1.25,2,2.64.22,3.83-1.9,1.3-2.78-.37-3.64-1.71-4-6.29-8.08-12.54-12-18.89-1-1.63-1.53-1.4-3.05-.48-6.71,4-9.88,9.57-8.36,17.48a6.07,6.07,0,0,1-.17,2.61,1.78,1.78,0,0,1-2,1.32,1.76,1.76,0,0,1-1.68-1.41,9.06,9.06,0,0,1-.12-2.05q0-17.09,0-34.19c0-1.25-.35-2.66,1.72-2.66,1.86,0,2.34,1,2.34,2.63q0,7.66,0,15.33C550.69,482.82,550.36,483.54,551.19,484.33Z"/><path class="c" d="M516.4,370.51a2,2,0,0,1-1.4,2.08,1.94,1.94,0,0,1-2.58-1.32c-1-2.36-2-4.7-2.84-7.12a2.42,2.42,0,0,0-2.72-2c-4.62.1-9.24,0.08-13.86,0a2.08,2.08,0,0,0-2.37,1.61c-0.76,2.22-1.68,4.39-2.53,6.58-0.51,1.32-1.07,2.81-2.86,2.23-2-.63-1.55-2.15-1-3.64q6.23-15.92,12.43-31.84a21.72,21.72,0,0,0,1.12-3c0.23-1,.44-1.89,1.75-2a2.36,2.36,0,0,1,2.52,1.63q7,18,14.06,36C516.25,370,516.33,370.28,516.4,370.51Zm-23.5-12.38c4.47,0,8.58,0,12.69,0,1.7,0,1.38-.79.95-1.83-1.35-3.26-2.72-6.52-4-9.82a30.76,30.76,0,0,0-2.68-6.26Z"/><path class="c" d="M375.29,370.48a2,2,0,0,1-1.61,2.18,1.91,1.91,0,0,1-2.34-1.31c-1-2.36-2-4.71-2.82-7.12a2.63,2.63,0,0,0-3-2.06c-4.32.14-8.65,0.13-13,0-1.73,0-2.7.38-3.22,2.14-0.58,2-1.49,3.83-2.25,5.74-0.58,1.47-1,3.34-3.19,2.44s-1.15-2.73-.62-4.09c2.76-7.14,5.66-14.23,8.47-21.35,1.66-4.2,3.28-8.42,4.89-12.64,0.37-1,.26-2.21,1.8-2.29s2.27,0.91,2.77,2.17l4.61,11.78,8.79,22.46C374.84,369.18,375.06,369.84,375.29,370.48Zm-9.19-12.43-7.19-18.22-7.05,18.22H366.1Z"/><path class="c" d="M544.39,438.85a12.35,12.35,0,0,1-10.86-6.37c-0.67-1.13-1.6-2.56.06-3.61s2.35,0.21,3.17,1.47c3.72,5.71,13.08,6.19,17.38,1a5.27,5.27,0,0,0-.34-7.23,17.66,17.66,0,0,0-7.27-4.33,62.18,62.18,0,0,1-6.29-2.48c-4-1.95-6.68-4.8-6.15-9.69,0.42-3.86,3.71-7.53,8.19-8.69,6.64-1.72,11.2.55,15.16,5.59,0.88,1.12,1.35,2.27,0,3.3s-2.28.12-3.18-.94c-3.59-4.23-7.37-5.49-11.56-3.84-2.41.95-4.31,2.52-4.63,5.24s1.57,4.12,3.57,5.27a32,32,0,0,0,4.57,2,36,36,0,0,1,8.47,4.06c6.57,4.75,6.35,12.62-.48,17C551.62,438.2,548.79,438.82,544.39,438.85Z"/><path class="c" d="M439.21,288.12q0,7.66,0,15.33c0,1.53,0,3.24-2.05,3.22s-2-1.71-2-3.25c0-10.22-.07-20.44.06-30.65,0-2.27-.64-2.86-2.81-2.72-2.94.19-5.89,0-8.84,0.06-1.37,0-2.42-.53-2.45-1.94s1-2.07,2.35-2.07h27.41c1.39,0,2.37.69,2.34,2.07s-1,2-2.42,1.95c-3,0-6.1.09-9.13-.05-1.9-.09-2.55.44-2.5,2.44,0.14,5.2,0,10.41,0,15.62h0Z"/><path class="c" d="M394.33,486.05c0-5.3-.07-10.61,0-15.91,0-1.72-.53-2.22-2.17-2.17-2.94.09-5.89,0-8.84,0-1.48,0-3-.17-3-1.95s1.38-2.06,2.91-2.05q13.11,0,26.22,0c1.53,0,2.91.33,2.85,2.14-0.05,1.65-1.41,1.89-2.79,1.88-2.85,0-5.7.12-8.54,0-2.05-.12-2.66.51-2.63,2.6,0.11,9.92,0,19.83,0,29.75,0,0.69,0,1.38,0,2.06-0.1,1.37-.77,2.26-2.23,2.16s-1.78-1.06-1.78-2.27q0-6.92,0-13.84,0-1.18,0-2.36h0Z"/><path class="c" d="M468.73,353.87c0-5-.13-10,0.06-15,0.09-2.31-.68-2.85-2.83-2.71-2.84.18-5.7,0-8.55,0-1.41,0-2.72-.42-2.71-2s1.23-2,2.69-2q13.42,0,26.84,0c1.41,0,2.31.46,2.2,2a2,2,0,0,1-2.32,2c-2.85,0-5.71.14-8.55-.05-2.16-.14-2.85.42-2.82,2.71,0.14,9.83.06,19.67,0.06,29.5,0,0.59,0,1.18,0,1.77-0.05,1.45-.68,2.6-2.22,2.55s-1.84-1.23-1.84-2.55Q468.74,362,468.73,353.87Z"/><path class="c" d="M528.83,400.41c0.1,1.69-2.71,5.53-4,5.54a2.23,2.23,0,0,1-2.36-2.12c-0.23-1.88,2.1-5.57,3.49-5.61A2.6,2.6,0,0,1,528.83,400.41Z"/></svg>