<svg id="Layer_1" data-name="Layer 1" xmlns="http://www.w3.org/2000/svg" viewBox="0 0 374.25 112.5"><defs><style>.cls-1{fill:#9ab13b;}.cls-2{fill:#677627;}.cls-3{fill:#483737;}</style></defs><title>Artboard 1</title><path class="cls-1" d="M323.56,1.16a14.84,14.84,0,0,0-8.78,2.9,12.07,12.07,0,0,0-16.71,8.1,11.19,11.19,0,0,0-7.93,17.64,14.79,14.79,0,0,0-8.94,8.86h13v18h-6.43a14.86,14.86,0,0,0,7.31,2l.36,0A10.44,10.44,0,0,0,304,63c.3,0,.6,0,.9,0a13.4,13.4,0,0,0,24.32-.71A14.77,14.77,0,0,0,353,57a10.46,10.46,0,0,0,11.45-2.24,10.4,10.4,0,0,0,3.07-7.39A10.59,10.59,0,0,0,366,42.09,14.79,14.79,0,0,0,356.87,16v0A9.24,9.24,0,0,0,341.68,8.9a10.65,10.65,0,0,0-4-.81,12.63,12.63,0,0,0-1.5.12,14.79,14.79,0,0,0-12.6-7Z"/><path class="cls-2" d="M324.32,0a15.34,15.34,0,0,0-9.07,3A12.47,12.47,0,0,0,298,11.37a11.55,11.55,0,0,0-8.19,18.23,15.32,15.32,0,0,0-10,11.9h5.58a9.75,9.75,0,0,1,6.22-6.74l6.84-2.43-4.22-5.91a6.19,6.19,0,0,1-1.14-3.53,6.06,6.06,0,0,1,5.48-6.08l3.8-.41.92-3.71A7,7,0,0,1,313,8l2.93,1.33L318.5,7.4a9.79,9.79,0,0,1,14.19,2.76l1.9,3.08,3.58-.54a4.37,4.37,0,0,1,.72-.06,5.32,5.32,0,0,1,2.05.41L344,14.33l2.55-2.15a4.1,4.1,0,0,1,2.63-.95,4,4,0,0,1,4.08,4.08v5.34l5.32.15a9.81,9.81,0,0,1,6.07,17.32l-3.55,3,2.38,4a5.36,5.36,0,0,1,.74,2.71,5.25,5.25,0,0,1-5.33,5.32,5.43,5.43,0,0,1-2.07-.42l-5.08-2.15-2.11,5.1a9.8,9.8,0,0,1-15.77,3.46l-1.7-1.59h-5.59L325.12,61a8.38,8.38,0,0,1-15.21.44l-1.67-3.35-3.74.35-.41,0a5.27,5.27,0,0,1-4.34-2.26L298,53.72l-3,.13h-.13a10,10,0,0,1-3.85-.76v4.29h-3.59a15.39,15.39,0,0,0,7.45,1.95h.37a10.79,10.79,0,0,0,8.82,4.58c.31,0,.62,0,.93,0a13.84,13.84,0,0,0,25.13-.73,15.28,15.28,0,0,0,24.56-5.37A10.79,10.79,0,0,0,368.2,42.31a15.29,15.29,0,0,0-9.45-27v0A9.55,9.55,0,0,0,343.05,8a10.8,10.8,0,0,0-4.16-.83,11.41,11.41,0,0,0-1.54.12A15.33,15.33,0,0,0,324.32,0Z"/><path class="cls-3" d="M86.27,43.52H85L78.73,62.87H92.42Zm6.07,44.19v-.82a6.28,6.28,0,0,0,2.12-1.56,7.93,7.93,0,0,0,1.65-2.71,10.23,10.23,0,0,0,.65-3.77,14.69,14.69,0,0,0-.65-4.67h-21a17,17,0,0,0-.74,4.67A13.16,13.16,0,0,0,75,82.62a10.09,10.09,0,0,0,1.64,2.71,7.12,7.12,0,0,0,2.21,1.56v.82H52.49v-.82a6.9,6.9,0,0,0,1.32-1.15A15.09,15.09,0,0,0,55,84a24.93,24.93,0,0,0,1.32-2.46c.49-1,1-2.16,1.55-3.53.44-1,1-2.43,1.56-4.18s1.34-3.77,2-5.9l2.22-6.8c.76-2.35,1.49-4.62,2.21-6.81s1.33-4.18,1.88-6,1.1-3.36,1.48-4.51a21.77,21.77,0,0,0,1.14-5.66,9.53,9.53,0,0,0-.49-3.77,4.91,4.91,0,0,0-1.55-2.21,5.24,5.24,0,0,0-1.89-1.07v-.82h40v.82a5.13,5.13,0,0,0-1.88,1.07A4.92,4.92,0,0,0,103,34.42a10.61,10.61,0,0,0-.57,3.77,20.09,20.09,0,0,0,1.23,5.66q.57,1.73,1.47,4.59t2,6.15q1.16,3.36,2.38,7c.82,2.4,1.58,4.7,2.29,6.88s1.34,4.08,1.89,5.82,1.06,3,1.39,3.77a27.78,27.78,0,0,0,3,6.24,15.58,15.58,0,0,0,2.3,2.62v.82Z"/><path class="cls-3" d="M155.38,87.71v-.82a10,10,0,0,0,4-2.54A5.86,5.86,0,0,0,161,80.16q0-5.32-5.66-12.37a154.57,154.57,0,0,0-17.13-17.3v26.4a12.49,12.49,0,0,0,1.39,6.47,8.84,8.84,0,0,0,4.27,3.53v.82H116.19v-.82a8.84,8.84,0,0,0,4.27-3.53,12.49,12.49,0,0,0,1.39-6.47V41.14a12.51,12.51,0,0,0-1.39-6.47,8.89,8.89,0,0,0-4.27-3.53v-.82l22.06.09L161,53.85V41.14a12.62,12.62,0,0,0-1.39-6.47,9,9,0,0,0-4.27-3.53v-.82h27.71v.82a8.91,8.91,0,0,0-4.26,3.53,12.51,12.51,0,0,0-1.4,6.47V76.89a12.48,12.48,0,0,0,1.4,6.47,8.86,8.86,0,0,0,4.26,3.53v.82Z"/><path class="cls-3" d="M212.42,76a16.48,16.48,0,0,0,6.15-1.14,14,14,0,0,0,4.92-3.28,15.2,15.2,0,0,0,3.28-5.33A19.3,19.3,0,0,0,228,59.1,19.27,19.27,0,0,0,226.77,52a14.26,14.26,0,0,0-3.28-5.33,13.33,13.33,0,0,0-4.92-3.36,17,17,0,0,0-12.3,0,14.29,14.29,0,0,0-4.92,3.36A16,16,0,0,0,198.07,52a20.63,20.63,0,0,0-1.14,7.13,20.67,20.67,0,0,0,1.14,7.13,17.18,17.18,0,0,0,3.28,5.33,15.1,15.1,0,0,0,4.92,3.28A16.52,16.52,0,0,0,212.42,76Zm32-16.88a29.24,29.24,0,0,1-2.62,12.62,28.32,28.32,0,0,1-7.05,9.43,31.1,31.1,0,0,1-10.25,5.9,36.44,36.44,0,0,1-24.1,0,31.3,31.3,0,0,1-10.16-5.9,28.18,28.18,0,0,1-7.05-9.43,29.25,29.25,0,0,1-2.63-12.62,30.14,30.14,0,0,1,2.63-13,27.18,27.18,0,0,1,7.05-9.42A29.23,29.23,0,0,1,200.37,31a37.84,37.84,0,0,1,24.1,0,29.1,29.1,0,0,1,10.25,5.74,27.3,27.3,0,0,1,7.05,9.42A30.14,30.14,0,0,1,244.39,59.1Z"/><path class="cls-3" d="M52.88,49.59a29.06,29.06,0,0,0-8.2-5.33,26.5,26.5,0,0,0-11.07-2.13c-5.36,0-9.56,1.45-12.63,4.34S16.4,53.39,16.4,58.52a20.31,20.31,0,0,0,1.06,6.64,17,17,0,0,0,3.28,5.5,16.56,16.56,0,0,0,5.41,3.68,19.21,19.21,0,0,0,7.38,1.32,18.6,18.6,0,0,0,6.64-1.07,12.9,12.9,0,0,0,4.51-3,10.92,10.92,0,0,0,2.62-4.18,14.9,14.9,0,0,0,.82-4.92,8.31,8.31,0,0,1,3,.57,7.84,7.84,0,0,1,2.79,1.56,6.91,6.91,0,0,1,2,2.63A8.51,8.51,0,0,1,56.65,71a16.05,16.05,0,0,1-1.48,6.64,16.4,16.4,0,0,1-4.51,5.74,23.24,23.24,0,0,1-7.78,4.1A35.42,35.42,0,0,1,31.73,89a33.65,33.65,0,0,1-12.88-2.38,31.69,31.69,0,0,1-10-6.56A30.53,30.53,0,0,1,2.3,70.33,30.94,30.94,0,0,1,0,58.44,28.73,28.73,0,0,1,2.62,46a28.1,28.1,0,0,1,7.22-9.26A32.27,32.27,0,0,1,20.41,31,41.29,41.29,0,0,1,33.2,29a35.26,35.26,0,0,1,5,.33,37.78,37.78,0,0,1,4.18.82c1.31.27,2.46.52,3.44.74a12,12,0,0,0,2.55.33,8.08,8.08,0,0,0,4.18-1.07l1.31,19.27Z"/><path class="cls-3" d="M332.78,28.14v.74c7.31,7.3,6,11.11,3.33,16.12l-5.47,10.41-1.57-2.95a15.27,15.27,0,0,1-1.73-4.84,10.59,10.59,0,0,1,.09-4,9.08,9.08,0,0,1,1.22-3,8.61,8.61,0,0,1,1.89-2v-.73h-8.37c-4,1.58-6.13,5.43-6.79,10.93-.43-4.44-3-7.95-6.81-10.93h-8.36v.73a13.41,13.41,0,0,1,1.47,1.56c.39.55.8,1.17,1.23,1.88a17.3,17.3,0,0,1,1.48,2.38c.54.93,1.2,2,2,3.2l1,1.63h-.05l12.89,20.75v7a12.49,12.49,0,0,1-1.39,6.47,8.84,8.84,0,0,1-4.27,3.53v.82h27.71v-.82A8.86,8.86,0,0,1,338,83.36a12.49,12.49,0,0,1-1.39-6.47V70.25l18.11-30.17q1.06-1.8,1.89-3.12c.55-.92,1-1.75,1.47-2.46a19.64,19.64,0,0,1,1.31-1.88,13.51,13.51,0,0,1,1.48-1.56v-.74h-3.32c-4.27,1.55-8.53,5.39-9.63,8.75.48-5.2-4.33-9.42-7.45-10.93Z"/><path class="cls-3" d="M276.27,57.38a10,10,0,0,0,6.06-1.64,5.73,5.73,0,0,0,2.29-5,6.47,6.47,0,0,0-2.29-5.41,9.08,9.08,0,0,0-6.06-1.88H263.89V57.38ZM241.84,87.71v-.82a8.86,8.86,0,0,0,4.26-3.53,12.49,12.49,0,0,0,1.39-6.47V41.14a12.51,12.51,0,0,0-1.39-6.47,8.91,8.91,0,0,0-4.26-3.53v-.82h34.67a31.34,31.34,0,0,1,11,1.73,20.38,20.38,0,0,1,7.62,4.51,17.29,17.29,0,0,1,4.51,6.63,22.62,22.62,0,0,1,1.48,8.12,18.33,18.33,0,0,1-1.65,7.87,17,17,0,0,1-4.75,6.07,22.37,22.37,0,0,1-7.46,3.85,32.17,32.17,0,0,1-9.84,1.39H263.89v6.4a12.49,12.49,0,0,0,1.39,6.47,8.86,8.86,0,0,0,4.26,3.53v.82Z"/><path class="cls-2" d="M181.74,98.42h2v2.31c.23-.33.48-.66.75-1a4.44,4.44,0,0,1,1-.82,4.2,4.2,0,0,1,1.2-.59,5.08,5.08,0,0,1,1.54-.21,4.61,4.61,0,0,1,2.77.8,5,5,0,0,1,1.65,1.94,9.36,9.36,0,0,1,.82-1.06,5.63,5.63,0,0,1,1.07-.88,5,5,0,0,1,1.3-.59,6.11,6.11,0,0,1,1.65-.21,4.78,4.78,0,0,1,3.75,1.49,5.68,5.68,0,0,1,1.36,4v8.52h-2.05v-8a4.43,4.43,0,0,0-1-3.07A3.23,3.23,0,0,0,197,100a3.82,3.82,0,0,0-1.47.29,3.35,3.35,0,0,0-1.23.83,4.48,4.48,0,0,0-.82,1.33,5.33,5.33,0,0,0-.29,1.81v7.93h-2v-8.09a4.33,4.33,0,0,0-.95-3,3.21,3.21,0,0,0-2.59-1.09,3.58,3.58,0,0,0-1.51.32,3.72,3.72,0,0,0-1.23.91,4.33,4.33,0,0,0-.79,1.38,4.72,4.72,0,0,0-.3,1.73v7.85h-2Z"/><path class="cls-2" d="M208.29,106.14a5.1,5.1,0,0,0,.53,1.94,4.5,4.5,0,0,0,1.09,1.44,5.06,5.06,0,0,0,1.49.91,5.23,5.23,0,0,0,1.73.29,5.15,5.15,0,0,0,2.45-.54,7.07,7.07,0,0,0,1.89-1.41l1.28,1.15a8.9,8.9,0,0,1-2.37,1.89,7.15,7.15,0,0,1-3.31.69,7.23,7.23,0,0,1-2.66-.5,7,7,0,0,1-2.18-1.47,7.26,7.26,0,0,1-1.49-2.29,7.88,7.88,0,0,1-.53-2.93,8,8,0,0,1,.48-2.79,6.84,6.84,0,0,1,1.38-2.29,6.3,6.3,0,0,1,2.08-1.54,6.19,6.19,0,0,1,2.66-.56,5.93,5.93,0,0,1,2.71.59,5.73,5.73,0,0,1,2,1.54,6.6,6.6,0,0,1,1.25,2.31,9.44,9.44,0,0,1,.42,2.85v.32c0,.11,0,.24,0,.4Zm8.86-1.65a6.74,6.74,0,0,0-.4-1.76,4.81,4.81,0,0,0-.88-1.49,3.85,3.85,0,0,0-1.33-1,4.08,4.08,0,0,0-4.79,1,5.68,5.68,0,0,0-1,1.46,6.15,6.15,0,0,0-.47,1.84Z"/><path class="cls-2" d="M228.59,112.47a6.56,6.56,0,0,1-2.43-.47,6.47,6.47,0,0,1-2.1-1.39,7.26,7.26,0,0,1-1.49-2.23,7.85,7.85,0,0,1-.56-3v-.06a7.75,7.75,0,0,1,.56-3,6.86,6.86,0,0,1,1.49-2.24,6.37,6.37,0,0,1,2.1-1.41,6.22,6.22,0,0,1,2.43-.5,6,6,0,0,1,1.75.24,6.09,6.09,0,0,1,1.44.63,5.83,5.83,0,0,1,1.15.94,6.93,6.93,0,0,1,.92,1.12V92.75h2.06v19.43h-2.06v-2.77a9.53,9.53,0,0,1-.95,1.17,6.07,6.07,0,0,1-1.15,1,5.36,5.36,0,0,1-1.43.66A5.53,5.53,0,0,1,228.59,112.47Zm.37-1.83a4.84,4.84,0,0,0,1.84-.37,5.5,5.5,0,0,0,1.6-1.1,5.14,5.14,0,0,0,1.11-1.67,5.56,5.56,0,0,0,.43-2.19v0a5.34,5.34,0,0,0-.43-2.16,4.84,4.84,0,0,0-1.11-1.67,5,5,0,0,0-1.6-1.07A4.5,4.5,0,0,0,229,100a4.79,4.79,0,0,0-1.89.37,4.12,4.12,0,0,0-1.54,1,5,5,0,0,0-1,1.64,6.3,6.3,0,0,0-.37,2.24v0a6.13,6.13,0,0,0,.37,2.21,5.12,5.12,0,0,0,1.06,1.68,4.73,4.73,0,0,0,1.55,1.07A4.82,4.82,0,0,0,229,110.64Z"/><path class="cls-2" d="M240.54,93.15h2.34v2.26h-2.34Zm.13,5.27h2.05v13.76h-2.05Z"/><path class="cls-2" d="M253.71,112.5a7.18,7.18,0,0,1-2.83-.56,7.79,7.79,0,0,1-2.23-1.54,7.49,7.49,0,0,1-1.47-2.29,7.3,7.3,0,0,1-.53-2.74v-.06a7.29,7.29,0,0,1,.53-2.76,7.37,7.37,0,0,1,1.47-2.29,6.91,6.91,0,0,1,2.23-1.54,6.71,6.71,0,0,1,2.83-.59,8.12,8.12,0,0,1,1.78.18,7.35,7.35,0,0,1,2.69,1.31,11.71,11.71,0,0,1,1,.95L257.86,102a9.66,9.66,0,0,0-1.81-1.46,4.31,4.31,0,0,0-2.37-.61,4.62,4.62,0,0,0-2,.42,4.85,4.85,0,0,0-1.57,1.12,5.3,5.3,0,0,0-1,1.7,5.69,5.69,0,0,0-.38,2.08v0a5.9,5.9,0,0,0,.38,2.11,6.32,6.32,0,0,0,1.06,1.7,5.53,5.53,0,0,0,1.6,1.15,5.19,5.19,0,0,0,2,.39,4.56,4.56,0,0,0,2.34-.58,7.59,7.59,0,0,0,1.87-1.47l1.3,1.23a8.86,8.86,0,0,1-2.37,1.91A6.42,6.42,0,0,1,253.71,112.5Z"/><path class="cls-2" d="M266.78,112.47a7.12,7.12,0,0,1-1.89-.26,5.27,5.27,0,0,1-1.65-.8,4.62,4.62,0,0,1-1.17-1.36,3.93,3.93,0,0,1-.43-1.86v0a4.25,4.25,0,0,1,.43-2,3.81,3.81,0,0,1,1.2-1.41,5.88,5.88,0,0,1,1.86-.85,9.07,9.07,0,0,1,2.4-.29,13.83,13.83,0,0,1,2.29.16,17.05,17.05,0,0,1,1.91.42v-.42a3.47,3.47,0,0,0-1.06-2.77,4.33,4.33,0,0,0-3-1,8.57,8.57,0,0,0-2.23.27,11.2,11.2,0,0,0-1.95.72l-.61-1.68a14,14,0,0,1,2.31-.85,10,10,0,0,1,2.7-.32,6.07,6.07,0,0,1,4.44,1.51,5.47,5.47,0,0,1,1.43,4v8.41h-2v-2.05a6.66,6.66,0,0,1-1.94,1.65A6,6,0,0,1,266.78,112.47Zm.4-1.65a6,6,0,0,0,1.78-.26,4.57,4.57,0,0,0,1.44-.75,3.44,3.44,0,0,0,1-1.17,3.14,3.14,0,0,0,.37-1.52v-1.27a17.33,17.33,0,0,0-1.76-.4,11.7,11.7,0,0,0-2.26-.19,5,5,0,0,0-3,.77,2.36,2.36,0,0,0-1,2v0a2.52,2.52,0,0,0,.27,1.17,2.64,2.64,0,0,0,.77.86,3.81,3.81,0,0,0,1.09.53A4.91,4.91,0,0,0,267.18,110.82Z"/><rect class="cls-2" x="278.26" y="92.75" width="2.05" height="19.43"/><path class="cls-2" d="M299.3,112.5a7.18,7.18,0,0,1-2.83-.56,7.79,7.79,0,0,1-2.23-1.54,7.49,7.49,0,0,1-1.47-2.29,7.3,7.3,0,0,1-.53-2.74v-.06a7.29,7.29,0,0,1,.53-2.76,7.37,7.37,0,0,1,1.47-2.29,6.91,6.91,0,0,1,2.23-1.54,6.71,6.71,0,0,1,2.83-.59,8.12,8.12,0,0,1,1.78.18,7.35,7.35,0,0,1,2.69,1.31,11.71,11.71,0,0,1,1,.95L303.45,102a9.66,9.66,0,0,0-1.81-1.46,4.31,4.31,0,0,0-2.37-.61,4.62,4.62,0,0,0-1.95.42,4.85,4.85,0,0,0-1.57,1.12,5.13,5.13,0,0,0-1,1.7,5.69,5.69,0,0,0-.38,2.08v0a5.9,5.9,0,0,0,.38,2.11,6.08,6.08,0,0,0,1.06,1.7,5.53,5.53,0,0,0,1.6,1.15,5.19,5.19,0,0,0,2,.39,4.63,4.63,0,0,0,2.35-.58,7.73,7.73,0,0,0,1.86-1.47l1.3,1.23a8.86,8.86,0,0,1-2.37,1.91A6.42,6.42,0,0,1,299.3,112.5Z"/><rect class="cls-2" x="308.46" y="92.75" width="2.05" height="19.43"/><path class="cls-2" d="M315.34,93.15h2.35v2.26h-2.35Zm.14,5.27h2v13.76h-2Z"/><path class="cls-2" d="M322.31,98.42h2.05v2.4a6.15,6.15,0,0,1,1.81-1.89,4.88,4.88,0,0,1,2.9-.8,5.66,5.66,0,0,1,2.21.4,4.48,4.48,0,0,1,1.65,1.14,4.79,4.79,0,0,1,1,1.73,6.62,6.62,0,0,1,.37,2.24v8.54h-2v-8a4.4,4.4,0,0,0-1-3,3.53,3.53,0,0,0-2.82-1.12,4.37,4.37,0,0,0-1.65.32,3.57,3.57,0,0,0-1.3.88,3.9,3.9,0,0,0-.88,1.36,5.14,5.14,0,0,0-.29,1.75v7.88h-2.05Z"/><path class="cls-2" d="M338.74,93.15h2.34v2.26h-2.34Zm.13,5.27h2.05v13.76h-2.05Z"/><path class="cls-2" d="M351.9,112.5a7.13,7.13,0,0,1-2.82-.56,7.65,7.65,0,0,1-2.23-1.54,7.49,7.49,0,0,1-1.47-2.29,7.3,7.3,0,0,1-.53-2.74v-.06a7.29,7.29,0,0,1,.53-2.76,7.37,7.37,0,0,1,1.47-2.29,6.8,6.8,0,0,1,2.23-1.54,6.66,6.66,0,0,1,2.82-.59,8.15,8.15,0,0,1,1.79.18,7.35,7.35,0,0,1,2.69,1.31,11.71,11.71,0,0,1,1,.95L356.05,102a9.6,9.6,0,0,0-1.8-1.46,4.31,4.31,0,0,0-2.37-.61,4.59,4.59,0,0,0-1.95.42,4.85,4.85,0,0,0-1.57,1.12,5.32,5.32,0,0,0-1,1.7,5.91,5.91,0,0,0-.37,2.08v0a6.12,6.12,0,0,0,.37,2.11,6.35,6.35,0,0,0,1.07,1.7,5.4,5.4,0,0,0,1.6,1.15,5.16,5.16,0,0,0,2,.39,4.56,4.56,0,0,0,2.34-.58,7.73,7.73,0,0,0,1.86-1.47l1.31,1.23a8.86,8.86,0,0,1-2.37,1.91A6.43,6.43,0,0,1,351.9,112.5Z"/></svg>