<svg id="Layer_1" data-name="Layer 1" xmlns="http://www.w3.org/2000/svg" viewBox="0 0 162 50"><defs><style>.cls-1{fill:#fff;}</style></defs><title>Artboard 1</title><path class="cls-1" d="M139.52,1a6.49,6.49,0,0,0-3.87,1.28,5.32,5.32,0,0,0-7.37,3.57,5,5,0,0,0-4.42,4.92,4.9,4.9,0,0,0,.92,2.86,6.56,6.56,0,0,0-4.26,5.08h2.38a4.17,4.17,0,0,1,2.66-2.88l2.92-1-1.8-2.52a2.57,2.57,0,0,1-.49-1.51,2.6,2.6,0,0,1,2.34-2.6L130.15,8l.39-1.59a3,3,0,0,1,2.91-2.27,2.93,2.93,0,0,1,1.23.27l1.25.56,1.1-.81a4.19,4.19,0,0,1,6.06,1.17l.81,1.32,1.53-.23a3,3,0,0,1,.31,0,2.19,2.19,0,0,1,.87.18l1.31.55L149,6.2a1.78,1.78,0,0,1,1.12-.41,1.7,1.7,0,0,1,1.74,1.74V9.81l2.27.06a4.18,4.18,0,0,1,4.09,4.2,4.25,4.25,0,0,1-1.49,3.2l-1.52,1.27,1,1.71a2.26,2.26,0,0,1-1.95,3.42,2.25,2.25,0,0,1-.89-.18l-2.16-.91-.9,2.17a4.21,4.21,0,0,1-3.88,2.61,4.27,4.27,0,0,1-2.86-1.13l-.72-.68h-2.39L139.86,27a3.58,3.58,0,0,1-6.49.19l-.72-1.44-1.59.15h-.18A2.27,2.27,0,0,1,129,25l-.74-1L127,24H127a4.29,4.29,0,0,1-1.65-.32v1.83h-1.53a6.56,6.56,0,0,0,3.18.83h.16a4.6,4.6,0,0,0,3.76,2l.4,0A5.9,5.9,0,0,0,142,27.94a6.53,6.53,0,0,0,10.49-2.3,4.55,4.55,0,0,0,1.79.37,4.6,4.6,0,0,0,4-7,6.52,6.52,0,0,0-4-11.51h0a4.07,4.07,0,0,0-6.7-3.11,4.52,4.52,0,0,0-1.77-.36,4.89,4.89,0,0,0-.66.05A6.53,6.53,0,0,0,139.52,1Z"/><path class="cls-1" d="M37.93,19.57h-.56l-2.66,8.26h5.84Zm2.59,18.86v-.35a2.58,2.58,0,0,0,.91-.67,3.35,3.35,0,0,0,.7-1.15,4.25,4.25,0,0,0,.28-1.61,6.36,6.36,0,0,0-.28-2h-9a7.11,7.11,0,0,0-.31,2,5.51,5.51,0,0,0,.28,1.61,4.36,4.36,0,0,0,.7,1.15,3,3,0,0,0,.94.67v.35H23.52v-.35a3.28,3.28,0,0,0,.56-.49,8.64,8.64,0,0,0,.49-.74c.18-.3.37-.65.56-1.05s.43-.92.66-1.5.41-1,.67-1.78.57-1.61.87-2.52.62-1.9,1-2.91.64-2,.94-2.9.57-1.78.8-2.55l.63-1.93a8.92,8.92,0,0,0,.49-2.41,3.86,3.86,0,0,0-.21-1.61,2,2,0,0,0-.66-.94,2.11,2.11,0,0,0-.81-.46v-.35H46.54v.35a2.11,2.11,0,0,0-.81.46,2,2,0,0,0-.66.94,4.35,4.35,0,0,0-.25,1.61,8.82,8.82,0,0,0,.53,2.41c.16.49.37,1.14.63,2s.53,1.67.84,2.63l1,3c.35,1,.68,2,1,2.94s.57,1.74.8,2.48.46,1.26.6,1.61A12.17,12.17,0,0,0,51.5,37a6.87,6.87,0,0,0,1,1.12v.35Z"/><path class="cls-1" d="M67.42,38.43v-.35A4.33,4.33,0,0,0,69.14,37a2.51,2.51,0,0,0,.7-1.78q0-2.28-2.42-5.28a64.85,64.85,0,0,0-7.31-7.38V33.81a5.28,5.28,0,0,0,.6,2.76,3.72,3.72,0,0,0,1.82,1.51v.35H50.7v-.35a3.72,3.72,0,0,0,1.82-1.51,5.28,5.28,0,0,0,.6-2.76V18.56a5.35,5.35,0,0,0-.6-2.77,3.76,3.76,0,0,0-1.82-1.5v-.35l9.41,0,9.73,10V18.56a5.35,5.35,0,0,0-.6-2.77,3.76,3.76,0,0,0-1.82-1.5v-.35H79.25v.35a3.81,3.81,0,0,0-1.82,1.5,5.35,5.35,0,0,0-.6,2.77V33.81a5.28,5.28,0,0,0,.6,2.76,3.77,3.77,0,0,0,1.82,1.51v.35Z"/><path class="cls-1" d="M91.77,33.43a7.14,7.14,0,0,0,2.62-.49,6.09,6.09,0,0,0,2.1-1.4,6.58,6.58,0,0,0,1.4-2.28,8.21,8.21,0,0,0,.52-3,8.21,8.21,0,0,0-.52-3,6.23,6.23,0,0,0-1.4-2.28,5.65,5.65,0,0,0-2.1-1.43,7.28,7.28,0,0,0-5.25,0A6.08,6.08,0,0,0,87,20.9a6.82,6.82,0,0,0-1.4,2.28,9.68,9.68,0,0,0,0,6.08A7.24,7.24,0,0,0,87,31.54a6.6,6.6,0,0,0,2.1,1.4A7.15,7.15,0,0,0,91.77,33.43Zm13.64-7.21a12.49,12.49,0,0,1-1.12,5.39,12.21,12.21,0,0,1-3,4,13.26,13.26,0,0,1-4.37,2.52,15.65,15.65,0,0,1-10.29,0,13.18,13.18,0,0,1-4.33-2.52,12.07,12.07,0,0,1-3-4,12.49,12.49,0,0,1-1.12-5.39,12.82,12.82,0,0,1,1.12-5.53,11.5,11.5,0,0,1,3-4,12.36,12.36,0,0,1,4.33-2.45,16.18,16.18,0,0,1,10.29,0,12.44,12.44,0,0,1,4.37,2.45,11.62,11.62,0,0,1,3,4A12.82,12.82,0,0,1,105.41,26.22Z"/><path class="cls-1" d="M23.68,22.16a12.34,12.34,0,0,0-3.5-2.27A11.23,11.23,0,0,0,15.46,19a7.55,7.55,0,0,0-5.39,1.85,6.77,6.77,0,0,0-2,5.14,8.54,8.54,0,0,0,.46,2.84A7.12,7.12,0,0,0,10,31.15a7.13,7.13,0,0,0,2.3,1.58,8.35,8.35,0,0,0,3.15.56,8,8,0,0,0,2.84-.46,5.35,5.35,0,0,0,1.92-1.26,4.64,4.64,0,0,0,1.12-1.78,6.26,6.26,0,0,0,.35-2.1,3.56,3.56,0,0,1,1.29.24,3.23,3.23,0,0,1,1.2.67A2.81,2.81,0,0,1,25,29.72a3.6,3.6,0,0,1,.32,1.57,6.88,6.88,0,0,1-.63,2.84,7,7,0,0,1-1.92,2.44,9.89,9.89,0,0,1-3.33,1.75,14.87,14.87,0,0,1-4.75.67,14.37,14.37,0,0,1-5.5-1,13.58,13.58,0,0,1-4.27-2.8A12.79,12.79,0,0,1,2.1,31a13,13,0,0,1-1-5.07,12.18,12.18,0,0,1,1.12-5.32,12,12,0,0,1,3.07-3.95,13.91,13.91,0,0,1,4.52-2.45,17.51,17.51,0,0,1,5.45-.84,15.69,15.69,0,0,1,2.14.14,15.17,15.17,0,0,1,1.78.35l1.47.32a5.33,5.33,0,0,0,1.09.14,3.35,3.35,0,0,0,1-.14,3.27,3.27,0,0,0,.74-.32l.56,8.22Z"/><path class="cls-1" d="M143.13,13v.31c3.12,3.12,2.54,4.75,1.42,6.88l-2.34,4.45-.67-1.26a6.62,6.62,0,0,1-.73-2.07,4.6,4.6,0,0,1,0-1.71,3.77,3.77,0,0,1,.53-1.3,3.58,3.58,0,0,1,.8-.87v-.32H138.6c-1.72.68-2.62,2.33-2.9,4.67a6.82,6.82,0,0,0-2.9-4.67h-3.57v.32a6.5,6.5,0,0,1,.63.66c.16.24.34.5.52.81a8.1,8.1,0,0,1,.63,1c.23.4.51.86.84,1.37l.43.69h0l5.5,8.86v3a5.39,5.39,0,0,1-.59,2.76,3.77,3.77,0,0,1-1.82,1.51v.35h11.82v-.35a3.81,3.81,0,0,1-1.82-1.51,5.39,5.39,0,0,1-.59-2.76V31l7.73-12.88c.3-.51.57-1,.81-1.33l.62-1c.19-.3.38-.57.56-.8a6.5,6.5,0,0,1,.63-.66v-.32H153.7a7.2,7.2,0,0,0-4.11,3.73c.2-2.22-1.85-4-3.18-4.66Z"/><path class="cls-1" d="M119,25.48a4.31,4.31,0,0,0,2.59-.69,2.47,2.47,0,0,0,1-2.14,2.77,2.77,0,0,0-1-2.31,3.89,3.89,0,0,0-2.59-.8h-5.28v5.94Zm-14.69,13v-.35a3.81,3.81,0,0,0,1.82-1.51,5.39,5.39,0,0,0,.59-2.76V18.56a5.46,5.46,0,0,0-.59-2.77,3.85,3.85,0,0,0-1.82-1.5v-.35h14.8a13.32,13.32,0,0,1,4.68.74,8.62,8.62,0,0,1,3.26,1.92A7.42,7.42,0,0,1,129,19.43a9.62,9.62,0,0,1,.63,3.47,7.79,7.79,0,0,1-.7,3.35,7.18,7.18,0,0,1-2,2.59,9.56,9.56,0,0,1-3.18,1.65,14,14,0,0,1-4.2.59h-5.77v2.73a5.39,5.39,0,0,0,.59,2.76,3.77,3.77,0,0,0,1.82,1.51v.35Z"/><path class="cls-1" d="M78.67,43h.88v1a3.32,3.32,0,0,1,.32-.42,1.53,1.53,0,0,1,.41-.35,1.73,1.73,0,0,1,.51-.25,2.19,2.19,0,0,1,.66-.09,1.94,1.94,0,0,1,1.18.34,2.12,2.12,0,0,1,.7.82,4.94,4.94,0,0,1,.35-.45,2.33,2.33,0,0,1,.46-.37,2,2,0,0,1,.55-.25,2.65,2.65,0,0,1,.71-.09,2.07,2.07,0,0,1,1.6.63,2.48,2.48,0,0,1,.58,1.73v3.63H86.7V45.44a1.83,1.83,0,0,0-.41-1.3,1.37,1.37,0,0,0-1.11-.47,1.44,1.44,0,0,0-.62.13,1.4,1.4,0,0,0-.53.35,1.84,1.84,0,0,0-.35.56,2.37,2.37,0,0,0-.12.78v3.38h-.87V45.42a1.85,1.85,0,0,0-.4-1.28,1.4,1.4,0,0,0-1.11-.47,1.5,1.5,0,0,0-.64.14,1.66,1.66,0,0,0-.53.38,2.28,2.28,0,0,0-.34.59,2.17,2.17,0,0,0-.12.74v3.35h-.88Z"/><path class="cls-1" d="M90,46.29a2.17,2.17,0,0,0,.23.83,2,2,0,0,0,.46.62,2.17,2.17,0,0,0,.64.38,2,2,0,0,0,.74.13,2.22,2.22,0,0,0,1-.23,2.94,2.94,0,0,0,.81-.6l.54.49a3.54,3.54,0,0,1-1,.8A3,3,0,0,1,92,49,2.89,2.89,0,0,1,90,48.17a3.14,3.14,0,0,1-.64-1,3.49,3.49,0,0,1,0-2.44,2.92,2.92,0,0,1,.59-1,2.65,2.65,0,0,1,.89-.66,2.63,2.63,0,0,1,1.13-.23,2.57,2.57,0,0,1,1.16.25,2.31,2.31,0,0,1,.86.65,2.79,2.79,0,0,1,.54,1A4,4,0,0,1,94.67,46v.13c0,.05,0,.11,0,.17Zm3.78-.7a2.57,2.57,0,0,0-.17-.75,2.14,2.14,0,0,0-.37-.64,1.65,1.65,0,0,0-.57-.43,1.81,1.81,0,0,0-.76-.16,1.69,1.69,0,0,0-1.28.57,2.41,2.41,0,0,0-.43.63,2.79,2.79,0,0,0-.2.78Z"/><path class="cls-1" d="M98.66,49a2.64,2.64,0,0,1-1-.21,2.75,2.75,0,0,1-.9-.59,3,3,0,0,1-.63-1,3.31,3.31,0,0,1-.24-1.3v0a3.25,3.25,0,0,1,.24-1.28,2.79,2.79,0,0,1,1.53-1.56,2.64,2.64,0,0,1,1-.21,2.48,2.48,0,0,1,.75.1,2.9,2.9,0,0,1,.62.27,2.68,2.68,0,0,1,.49.4,3.35,3.35,0,0,1,.39.47V40.58h.88v8.29h-.88V47.69a3.74,3.74,0,0,1-.41.5,2.41,2.41,0,0,1-.48.42,2.18,2.18,0,0,1-.62.28A2.4,2.4,0,0,1,98.66,49Zm.16-.79a1.92,1.92,0,0,0,.79-.16,2.19,2.19,0,0,0,1.16-1.18,2.34,2.34,0,0,0,.18-.93v0a2.3,2.3,0,0,0-.66-1.64,2.37,2.37,0,0,0-.68-.45,2,2,0,0,0-1.59,0,1.82,1.82,0,0,0-.66.44,2.34,2.34,0,0,0-.45.7,2.85,2.85,0,0,0-.15,1v0a2.77,2.77,0,0,0,.15.94,2.4,2.4,0,0,0,.46.72,1.85,1.85,0,0,0,.66.45A1.92,1.92,0,0,0,98.82,48.21Z"/><path class="cls-1" d="M103.76,40.75h1v1h-1Zm.06,2.25h.88v5.87h-.88Z"/><path class="cls-1" d="M109.38,49a3,3,0,0,1-1.2-.24,3.42,3.42,0,0,1-1-.66,3.2,3.2,0,0,1-.62-1,3.09,3.09,0,0,1-.23-1.17v0a3.1,3.1,0,0,1,.23-1.18,3.2,3.2,0,0,1,.62-1,3.08,3.08,0,0,1,2.16-.9,3.51,3.51,0,0,1,.76.07,2.93,2.93,0,0,1,.63.23,2.55,2.55,0,0,1,.52.33,4.35,4.35,0,0,1,.44.41l-.58.61a3.81,3.81,0,0,0-.77-.62,1.79,1.79,0,0,0-1-.26,2,2,0,0,0-.83.18,1.88,1.88,0,0,0-.67.48,2,2,0,0,0-.44.72,2.38,2.38,0,0,0-.16.89v0a2.44,2.44,0,0,0,.16.9,2.62,2.62,0,0,0,.45.73,2.47,2.47,0,0,0,.68.48,2.11,2.11,0,0,0,.87.17,1.93,1.93,0,0,0,1-.25,3.14,3.14,0,0,0,.79-.62l.56.52a3.76,3.76,0,0,1-1,.82A2.77,2.77,0,0,1,109.38,49Z"/><path class="cls-1" d="M115,49a2.72,2.72,0,0,1-.8-.12,2.12,2.12,0,0,1-.71-.34A2,2,0,0,1,113,48a1.65,1.65,0,0,1-.18-.79v0a1.78,1.78,0,0,1,.18-.83,1.59,1.59,0,0,1,.51-.61,2.79,2.79,0,0,1,.8-.36,4.08,4.08,0,0,1,1-.12,7,7,0,0,1,1,.06,7.51,7.51,0,0,1,.82.19v-.19a1.51,1.51,0,0,0-.46-1.18,1.86,1.86,0,0,0-1.28-.41,3.6,3.6,0,0,0-1,.12,5.53,5.53,0,0,0-.83.3l-.26-.71a6.57,6.57,0,0,1,1-.36,4,4,0,0,1,1.15-.14,2.56,2.56,0,0,1,1.89.65,2.32,2.32,0,0,1,.62,1.72v3.59h-.86V48a3,3,0,0,1-.83.7A2.51,2.51,0,0,1,115,49Zm.17-.71a2.58,2.58,0,0,0,.76-.11,2,2,0,0,0,.62-.32,1.54,1.54,0,0,0,.42-.5,1.42,1.42,0,0,0,.16-.65v-.54c-.22-.06-.47-.12-.75-.17a5.5,5.5,0,0,0-1-.08,2.13,2.13,0,0,0-1.27.33,1,1,0,0,0-.44.85v0a1,1,0,0,0,.11.5,1.06,1.06,0,0,0,.33.37,1.7,1.7,0,0,0,.47.22A1.77,1.77,0,0,0,115.13,48.29Z"/><rect class="cls-1" x="119.86" y="40.58" width="0.87" height="8.29"/><path class="cls-1" d="M128.84,49a3.07,3.07,0,0,1-1.21-.24,3.37,3.37,0,0,1-.95-.66,3.23,3.23,0,0,1-.63-1,3.08,3.08,0,0,1-.22-1.17v0a3.1,3.1,0,0,1,.22-1.18,3.23,3.23,0,0,1,.63-1,2.82,2.82,0,0,1,.95-.65,2.91,2.91,0,0,1,1.21-.25,3.57,3.57,0,0,1,.76.07,2.84,2.84,0,0,1,.62.23,2.62,2.62,0,0,1,.53.33,5.76,5.76,0,0,1,.44.41l-.58.61a3.81,3.81,0,0,0-.77-.62,1.79,1.79,0,0,0-1-.26,1.94,1.94,0,0,0-.83.18,1.88,1.88,0,0,0-.67.48,2.2,2.2,0,0,0-.45.72,2.6,2.6,0,0,0-.16.89v0a2.66,2.66,0,0,0,.16.9,2.91,2.91,0,0,0,.46.73,2.2,2.2,0,0,0,.68.48,2.06,2.06,0,0,0,.86.17,1.9,1.9,0,0,0,1-.25,3.19,3.19,0,0,0,.8-.62l.55.52a3.61,3.61,0,0,1-1,.82A2.76,2.76,0,0,1,128.84,49Z"/><rect class="cls-1" x="132.75" y="40.58" width="0.87" height="8.29"/><path class="cls-1" d="M135.69,40.75h1v1h-1Zm.05,2.25h.88v5.87h-.88Z"/><path class="cls-1" d="M138.66,43h.87v1a2.7,2.7,0,0,1,.78-.8,2,2,0,0,1,1.23-.34,2.37,2.37,0,0,1,1,.17,1.83,1.83,0,0,1,.7.48,2,2,0,0,1,.44.74,2.69,2.69,0,0,1,.16,1v3.64h-.87V45.44a1.89,1.89,0,0,0-.42-1.29,1.52,1.52,0,0,0-1.21-.48,1.82,1.82,0,0,0-.7.14,1.48,1.48,0,0,0-.56.37,1.65,1.65,0,0,0-.37.58,2.27,2.27,0,0,0-.13.75v3.36h-.87Z"/><path class="cls-1" d="M145.67,40.75h1v1h-1Zm.06,2.25h.87v5.87h-.87Z"/><path class="cls-1" d="M151.29,49a3.07,3.07,0,0,1-1.21-.24,3.37,3.37,0,0,1-1-.66,3.2,3.2,0,0,1-.62-1,2.91,2.91,0,0,1-.23-1.17v0a2.92,2.92,0,0,1,.23-1.18,3.2,3.2,0,0,1,.62-1,2.82,2.82,0,0,1,1-.65,2.91,2.91,0,0,1,1.21-.25,3.57,3.57,0,0,1,.76.07,2.84,2.84,0,0,1,.62.23,2.62,2.62,0,0,1,.53.33l.44.41-.58.61a4.11,4.11,0,0,0-.77-.62,1.81,1.81,0,0,0-1-.26,1.94,1.94,0,0,0-.83.18,1.88,1.88,0,0,0-.67.48,2.2,2.2,0,0,0-.45.72,2.6,2.6,0,0,0-.15.89v0a2.66,2.66,0,0,0,.15.9,2.91,2.91,0,0,0,.46.73,2.33,2.33,0,0,0,.68.48,2.06,2.06,0,0,0,.86.17,1.9,1.9,0,0,0,1-.25,3.19,3.19,0,0,0,.8-.62l.55.52a3.61,3.61,0,0,1-1,.82A2.76,2.76,0,0,1,151.29,49Z"/></svg>